# xmcd
#
# Track frame offsets: 
#        150
#        9481
#        17584
#        37826
#        46805
#        54728
#        75201
#        83969
#        104104
#        122123
#        136829
#        146622
#        158982
#
# Disc length: 2244 seconds
#
# Revision: 0
# Processed by: cddbd v1.5.2PL0 Copyright (c) Steve Scherf et al.
# Submitted via: ExactAudioCopyFreeDBPlugin 1.0
#
DISCID=9e08c20d
DTITLE=Them Muddy Brothers - Welcome To The Mudd
DYEAR=2018
DGENRE=Country
TTITLE0=Heroin
TTITLE1=Hell Breaks Loose
TTITLE2=Adeleene
TTITLE3=Ugly Sue
TTITLE4=Grampahs Revenge
TTITLE5=Hungry Like The Wolf
TTITLE6=Mudd Mountain Theme
TTITLE7=Letting The Cattle Sleep
TTITLE8=Oh Lord
TTITLE9=Rain And Snow
TTITLE10=Retard Sweetheart
TTITLE11=Wayfaring Stranger
TTITLE12=Hits From Da Bong
EXTD=
EXTT0=
EXTT1=
EXTT2=
EXTT3=
EXTT4=
EXTT5=
EXTT6=
EXTT7=
EXTT8=
EXTT9=
EXTT10=
EXTT11=
EXTT12=
PLAYORDER=
